<?xml version="1.0" encoding="utf-8"?>
<!-- Generator: Adobe Illustrator 26.0.3, SVG Export Plug-In . SVG Version: 6.00 Build 0)  -->
<svg version="1.0" id="katman_1" xmlns="http://www.w3.org/2000/svg" xmlns:xlink="http://www.w3.org/1999/xlink" x="0px" y="0px"
	 viewBox="0 0 600 450" style="enable-background:new 0 0 600 450;" xml:space="preserve">
<g>
	<path d="M225.6,233.5h-3.7v15.1c0,2,0.4,3.3,1.3,3.9c0.7,0.5,2,0.8,3.7,0.8h1.7v2h-23.2v-2h2c2,0,3.3-0.3,4.1-0.9
		c0.7-0.7,1.1-1.9,1.1-3.8v-36.1c0-2.5-0.5-4.1-1.6-4.7c-0.7-0.3-2-0.5-4.1-0.5h-1.4v-1.9l20.2,0c5.7,0,10.1,1.1,13.4,3.2
		c3.8,2.4,5.7,6.1,5.7,11c0,4.7-1.9,8.3-5.7,10.7C235.7,232.4,231.2,233.5,225.6,233.5L225.6,233.5z M235.2,219.6
		c0-8-3.2-12.1-9.6-12.1H222v23.7h3.5C232,231.2,235.2,227.3,235.2,219.6L235.2,219.6z M275,224.4c0,1.2-0.4,2.1-1.2,3
		c-0.8,0.9-1.9,1.3-3.3,1.3c-1.2,0-2.2-0.4-3-1.1c-0.8-0.7-1.1-1.4-1.1-2.2c0-0.8,0.1-1.4,0.3-1.9h-0.1c-1.5,1.3-2.7,4.1-3.5,8.6
		c-0.6,3.2-0.8,6.4-0.8,9.7v5.3c0,2.7,0.2,4.4,0.7,5.1c0.4,0.7,1.6,1,3.3,1h3.3v2.2h-23.2v-2.2h2.2c2.2,0,3.5-0.4,4.1-1.3
		c0.5-0.8,0.7-2.5,0.7-4.9v-13.3c0-4.9-0.2-7.9-0.7-8.8c-0.5-1-1.6-1.5-3.4-1.5h-0.8v-2.2H261l0.4,8.7h0.1c0.2-2.5,0.9-4.6,2.2-6.5
		c1.6-2.2,3.7-3.3,6.3-3.3C273.3,220.1,275,221.5,275,224.4L275,224.4z M315.3,255.3h-13l-0.1-5.3c-0.1,0.1-0.1,0.1-0.1,0
		c-0.5,1.5-1.6,3-3.2,4.2c-1.9,1.4-4,2.1-6.4,2.1c-3.8,0-6.6-1.1-8.2-3.2c-1.3-1.7-2-4.4-2-7.9v-14.7c0-3.8-0.2-5.9-0.5-6.4
		c-0.3-0.5-1.2-0.7-2.5-0.7h-0.5v-2.2h12.5v25c0,3.8,1.5,5.6,4.5,5.6c2.6,0,4.3-1.7,5.2-5.1c0.3-1.2,0.5-3,0.5-5.5v-10.7
		c0-3.7-0.2-5.8-0.6-6.2c-0.5-0.7-1.8-0.9-3.7-0.9h-0.7v-2.2h14v26c0,2.6,0.3,4.2,0.8,5c0.5,0.7,1.3,1,2.7,1h1.3V255.3z
		 M353.6,255.3h-13.2l-0.1-5.3c-0.4,1.4-1.4,2.8-2.9,4c-1.9,1.5-4.2,2.3-6.6,2.3c-5,0-8.6-2-10.9-6c-1.9-3.1-2.8-7.2-2.8-12.2
		c0-4.6,1.2-8.6,3.7-12.2c2.8-3.9,6.5-5.9,11.2-5.9c3.9,0,6.5,1.2,7.7,3.4v-10.6c0-2.2-0.4-3.7-1.2-4.4c-0.6-0.6-1.8-0.9-3.4-0.9
		h-0.6v-2.2l14.1-1.1v44.4c0,1.9,0.3,3.1,0.9,3.6c0.6,0.5,1.7,0.7,3.2,0.7h0.9V255.3z M339.6,241.4v-7.1c0-7.6-2.1-11.4-6.1-11.4
		c-4.2,0-6.3,5.1-6.3,15.2c0,9.5,2,14.2,6.1,14.2c2.3,0,3.9-1.1,4.9-3.4C339.1,246.7,339.6,244.2,339.6,241.4L339.6,241.4z
		 M386.2,237.1h-21.4c-0.1,2.6,0.1,5.2,0.5,7.7c1,5.7,3.5,8.6,7.4,8.6c3.1,0,5.6-1.2,7.6-3.5c1.6-1.9,2.4-4,2.4-6.3h2.9
		c0,2.9-1.2,5.7-3.6,8.2c-2.8,3-6.3,4.5-10.6,4.5c-5.3,0-9.5-1.7-12.4-5.2c-2.7-3.2-4-7.5-4-13c0-5.3,1.5-9.6,4.7-13.1
		c3.1-3.3,6.8-5,11.5-5c5.1,0,8.9,1.7,11.5,5C385,228.1,386.2,232.1,386.2,237.1L386.2,237.1z M377,234.7c0.2-8.5-1.8-12.7-5.8-12.7
		c-2.6,0-4.4,1.7-5.3,5.1c-0.5,1.6-0.8,4.2-0.9,7.7H377z M426.1,255.3h-13.8v-25.4c0-3.6-1.5-5.4-4.4-5.4c-1.7,0-3,0.8-4,2.4
		c-1,1.7-1.5,4.2-1.5,7.4V247c0,3,0.2,4.7,0.5,5.1c0.6,0.7,1.7,1,3.3,1h1v2.2h-18.7v-2.2h1.1c1.5,0,2.6-0.4,3.2-1
		c0.4-0.4,0.5-2.1,0.5-5.1v-17.5c0-2.9-0.2-4.6-0.6-5.1c-0.5-0.6-1.5-1-2.9-1h-1.4v-2.2h13.1l0.2,5.4h0c1.6-4.3,4.9-6.4,9.7-6.4
		c3.7,0,6.4,1,7.9,3.1c1.3,1.7,2,4.5,2,8.4v15.5c0,2.8,0.2,4.5,0.6,5c0.5,0.7,1.4,1,2.8,1h1.4V255.3z M450.8,242.6
		c0,4.5-0.4,7.7-1.2,9.4c-1.3,2.8-4.2,4.3-8.5,4.3c-5.8,0-8.6-3.2-8.6-9.5v-23.4h-6.2v-2.3h0.6c3.6,0,6.6-2,9.1-5.9
		c2.1-3.3,3.2-6.6,3.2-9.8h2.3v15.8h6.9v2.3h-6.8v24.5c0,3.1,0.9,4.6,2.9,4.6c1,0,1.7-0.4,2.3-1.3c0.9-1.3,1.3-4.1,1.3-8.6H450.8z
		 M472.1,255.3h-18.5v-2.2h1.1c1.4,0,2.4-0.3,2.8-1c0.5-0.7,0.7-2.4,0.7-5.2v-18.3c0-2.4-0.4-3.9-1.1-4.5c-0.6-0.5-1.8-0.7-3.5-0.7
		h-0.7v-2.3h14.4v25.8c0,2.8,0.2,4.6,0.6,5.1c0.5,0.7,1.4,1,2.8,1h1.3V255.3z M468.1,210.3c0,1.5-0.5,2.9-1.6,3.9
		c-1.1,1.1-2.4,1.7-3.9,1.7c-1.5,0-2.8-0.5-3.9-1.7c-1.1-1-1.7-2.4-1.7-3.9c0-1.5,0.5-2.8,1.7-3.9c1.1-1.1,2.4-1.6,3.9-1.6
		c1.6,0,2.9,0.5,3.9,1.6C467.5,207.5,468.1,208.8,468.1,210.3L468.1,210.3z M505.9,255.3h-12.4c0-1.9,0-3.7-0.1-5.6
		c-0.3,1.5-1.4,3-3.3,4.3c-2.1,1.5-4.2,2.2-6.6,2.2c-3.5,0-6.1-1.1-8-3.1c-1.5-1.7-2.2-3.5-2.2-5.7c0-3.7,1.8-6.6,5.5-8.7
		c2.8-1.6,7.4-3,13.9-4.3v-5.8c0-4.1-2.3-6.2-6.9-6.2c-1.7,0-3.2,0.4-4.7,1.2c-1.3,0.7-2.1,1.4-2.4,2.2v0.1c0.4-0.6,1.1-0.9,2.2-0.9
		c2.9,0,4.3,1.3,4.3,4c0,1.1-0.5,2-1.4,2.9c-1,0.9-2.2,1.3-3.5,1.3c-1.3,0-2.5-0.4-3.5-1.2c-1.1-1-1.7-2.2-1.7-3.9
		c0-2.3,1.2-4.3,3.7-5.8c2.5-1.5,5.6-2.2,9.2-2.2c9,0,13.5,3.9,13.5,11.8v16.8c0,2,0.3,3.2,0.9,3.7c0.6,0.5,1.5,0.7,2.5,0.7h0.7
		L505.9,255.3L505.9,255.3z M492.8,242.2v-5.4c-3.6,0.7-6.1,1.6-7.6,2.7c-1.7,1.4-2.6,3.7-2.6,6.8c0,1.9,0.4,3.3,1.3,4.4
		c0.7,1,1.7,1.5,2.9,1.5c2.1,0,3.8-1,4.9-3.1C492.4,247.6,492.8,245.3,492.8,242.2L492.8,242.2z M527,253.1v2.2h-17.8v-2.2h0.4
		c1.2,0,2.1-0.2,2.7-0.7c0.6-0.5,0.9-1.7,0.9-3.6v-35.8c0-2.2-0.3-3.6-1.1-4.3c-0.7-0.7-1.6-1-2.8-1h-1.3v-2.2l14.1-1.1v44.4
		c0,1.9,0.3,3.1,0.9,3.6c0.6,0.5,1.7,0.7,3.3,0.7H527z M147.8,202.1l-23.6-13.7l-8.6-1.5v6.3l6.7,6.2l-9.2-0.9
		c0.1,0.2,2.7,3.1,8,8.6l34.8,5.8l6.1,4l-15.9,0.8l-6.5,24l-21.6,14.4h-14.1l4.7-9.4l-0.8-0.3l-12.6,9.7h-3.1l13-18.3
		c0.1-1.2,0.5-5.3,1-12.2l-1.9-2.8l-5.2,20.1l-10.8,13.1h-2.8l6.4-9.1l9-27.6l-2.1,1.2l-4.1,10.9l-2.7,1.5L82,256
		c-7-9.9-10.4-20.9-10.4-33c0-13.1,4.9-24.7,14.6-34.8c10.4-10.7,23.3-16.1,38.6-16.1c13.7,0,25.6,4.6,35.4,13.8
		c7.8,7.3,12.7,15.1,14.5,23.4L147.8,202.1z M169.2,204.4c-3.2-8.2-8.7-15-16.6-20.3c-8.4-5.7-17.6-8.6-27.8-8.6
		c-14.3,0-26.3,5-36,15.1c-9,9.5-13.5,20.3-13.5,32.5c0,9.3,2.2,18,6.7,25.9l13.3-35.6c2.8-1.5,4.2-2.1,4.2-1.8l5.9-15.1l3.8-2.1
		l4.8-10l10.4,1.6l21,11.7L169.2,204.4z M164.7,258.4c-4.6,5.8-10.6,10.4-18.1,13.7c-7,3.2-14.5,4.8-22.1,4.8
		c-16.8,0-30.2-6.2-40.4-18.6H164.7z M148,241.6l-7.7,14.4h-7.3l13.6-17L148,241.6z M167.7,226.3l-4.9,11.4l-4.5,3.9l-8.9,14.4h-5.8
		l5.8-10.3l4.6-3.8l6.6-18.5L167.7,226.3L167.7,226.3z M158.8,222.8l-6.4,12l-3.4,0.6l0.9-7L149,227l0.9-7.9L158.8,222.8z
		 M176.6,229.3c-0.6,9.6-3.9,18.5-9.8,26.6h-11.7l11.1-17.6l3.4-11.4L176.6,229.3z M176.6,229.3"/>
</g>
</svg>
